<svg width="105" height="36" viewBox="0 0 105 36" fill="none" xmlns="http://www.w3.org/2000/svg">
<path d="M98.3568 25.1187C98.0557 25.1187 97.7811 24.9921 97.5331 24.739C97.2851 24.4859 97.1611 24.1938 97.1611 23.8628C97.1611 23.5512 97.2763 23.2592 97.5065 22.9866L99.3399 20.9129C99.4461 20.7571 99.4993 20.6208 99.4993 20.504C99.4993 20.3482 99.4461 20.2119 99.3399 20.0951L97.48 18.0505C97.3028 17.7974 97.2143 17.5443 97.2143 17.2912C97.2143 16.9601 97.3471 16.6778 97.6128 16.4441C97.8785 16.191 98.1708 16.0645 98.4896 16.0645C98.8262 16.0645 99.0919 16.2008 99.2867 16.4734L100.775 18.3718C100.881 18.4887 100.987 18.5471 101.093 18.5471C101.235 18.5471 101.341 18.4887 101.412 18.3718L102.874 16.4734C103.069 16.2008 103.334 16.0645 103.671 16.0645C103.99 16.0645 104.282 16.191 104.548 16.4441C104.813 16.6778 104.946 16.9699 104.946 17.3204C104.946 17.554 104.858 17.7974 104.68 18.0505L102.821 20.0951C102.714 20.2119 102.661 20.3482 102.661 20.504C102.661 20.6208 102.714 20.7571 102.821 20.9129L104.654 22.9866C104.884 23.2592 104.999 23.5512 104.999 23.8628C104.999 24.1938 104.875 24.4859 104.627 24.739C104.379 24.9921 104.105 25.1187 103.804 25.1187C103.485 25.1187 103.219 24.9727 103.007 24.6806L101.412 22.6069C101.341 22.49 101.235 22.4316 101.093 22.4316C100.987 22.4316 100.881 22.49 100.775 22.6069L99.1539 24.6806C99.0299 24.8364 98.897 24.9435 98.7553 25.0019C98.6313 25.0798 98.4985 25.1187 98.3568 25.1187Z" fill="#390D60"/>
<path d="M91.5783 25.1187C90.3915 25.1187 89.4261 24.7098 88.6821 23.892C87.9559 23.0547 87.5928 21.9448 87.5928 20.5624C87.5928 19.1799 87.947 18.0895 88.6556 17.2912C89.3818 16.4734 90.3295 16.0645 91.4985 16.0645C92.3311 16.0645 93.0573 16.3857 93.6773 17.0283C93.7481 16.7946 93.881 16.5999 94.0758 16.4441C94.2707 16.2884 94.5009 16.2105 94.7666 16.2105C95.1209 16.2105 95.4043 16.3273 95.6169 16.561C95.8471 16.7752 95.9623 17.038 95.9623 17.3496V23.9796C95.9623 24.3106 95.8471 24.5832 95.6169 24.7974C95.4043 25.0116 95.1209 25.1187 94.7666 25.1187C94.1821 25.1187 93.819 24.8364 93.6773 24.2717C93.1105 24.8364 92.4108 25.1187 91.5783 25.1187ZM91.7642 22.7529C92.3311 22.7529 92.7828 22.5485 93.1193 22.1396C93.4559 21.7112 93.6241 21.1855 93.6241 20.5624C93.6241 19.9198 93.4559 19.4038 93.1193 19.0144C92.7828 18.625 92.3311 18.4302 91.7642 18.4302C91.2151 18.4302 90.7634 18.625 90.4092 19.0144C90.0726 19.4038 89.9044 19.9198 89.9044 20.5624C89.9044 21.1855 90.0726 21.7112 90.4092 22.1396C90.7634 22.5485 91.2151 22.7529 91.7642 22.7529Z" fill="#390D60"/>
<path d="M84.6731 25.1182C83.9114 25.1182 83.2826 24.8748 82.7866 24.388C82.2906 23.9012 82.0426 23.1515 82.0426 22.139V18.9846C82.0426 18.7899 81.9541 18.6926 81.7769 18.6926H81.3784C81.0596 18.6926 80.8204 18.5855 80.661 18.3713C80.5016 18.1571 80.4219 17.8845 80.4219 17.5535C80.4219 17.203 80.5016 16.9207 80.661 16.7065C80.8204 16.4728 81.0596 16.356 81.3784 16.356H81.7769C81.9541 16.356 82.0426 16.2586 82.0426 16.0639V13.9026C82.0426 13.5716 82.1489 13.2892 82.3615 13.0556C82.574 12.8219 82.8486 12.7051 83.1851 12.7051C83.5217 12.7051 83.7963 12.8219 84.0088 13.0556C84.2391 13.2698 84.3542 13.5521 84.3542 13.9026V16.0639C84.3542 16.2586 84.4428 16.356 84.6199 16.356H85.603C85.9041 16.356 86.1521 16.4728 86.347 16.7065C86.5595 16.9401 86.6658 17.2225 86.6658 17.5535C86.6658 17.8845 86.5595 18.1571 86.347 18.3713C86.1521 18.5855 85.8953 18.6926 85.5764 18.6926H84.6199C84.4428 18.6926 84.3542 18.7899 84.3542 18.9846V21.7301C84.3542 22.0806 84.4074 22.324 84.5136 22.4603C84.6376 22.5966 84.7882 22.6648 84.9653 22.6648C85.0362 22.6648 85.1779 22.6453 85.3904 22.6063C85.603 22.5479 85.7359 22.5187 85.789 22.5187C86.0724 22.5187 86.3115 22.6355 86.5064 22.8692C86.7012 23.1029 86.7986 23.3852 86.7986 23.7162C86.7986 23.9693 86.7278 24.203 86.5861 24.4172C86.4621 24.6314 86.2584 24.7871 85.975 24.8845C85.7447 24.9624 85.5233 25.0208 85.3107 25.0597C85.0982 25.0987 84.8856 25.1182 84.6731 25.1182Z" fill="#390D60"/>
<path d="M78.1866 25.1187C77.8501 25.1187 77.5667 25.0116 77.3364 24.7974C77.1238 24.5832 77.0175 24.3106 77.0175 23.9796V20.4163C77.0175 19.6959 76.867 19.1799 76.5659 18.8683C76.2824 18.5568 75.9282 18.401 75.5031 18.401C75.0602 18.401 74.6883 18.5568 74.3871 18.8683C74.1037 19.1799 73.9266 19.5401 73.8557 19.949V23.8628C73.8557 24.1938 73.7406 24.4761 73.5103 24.7098C73.2978 24.924 73.0321 25.0311 72.7132 25.0311C72.3767 25.0311 72.0933 24.924 71.863 24.7098C71.6327 24.4956 71.5176 24.223 71.5176 23.892V17.3496C71.5176 17.038 71.6239 16.7752 71.8364 16.561C72.0667 16.3273 72.359 16.2105 72.7132 16.2105C72.9966 16.2105 73.2358 16.2981 73.4306 16.4734C73.6255 16.6291 73.7583 16.8336 73.8292 17.0867C74.3074 16.4052 75.0337 16.0645 76.0079 16.0645C76.9998 16.0645 77.8058 16.3857 78.4257 17.0283C79.0457 17.6709 79.3557 18.6931 79.3557 20.0951V24.038C79.3557 24.3496 79.2406 24.6124 79.0103 24.8266C78.7977 25.0213 78.5232 25.1187 78.1866 25.1187Z" fill="#390D60"/>
<path d="M61.8213 17.2327C61.8213 16.8433 61.9453 16.5512 62.1933 16.3565C62.4413 16.1618 62.7247 16.0645 63.0435 16.0645C63.2915 16.0645 63.504 16.1423 63.6812 16.2981C63.876 16.4344 64.0089 16.6291 64.0797 16.8823L65.7271 21.2926C65.8156 21.5457 65.9396 21.6722 66.099 21.6722C66.2585 21.6722 66.3736 21.5457 66.4444 21.2926L67.8792 16.8823C67.9678 16.6097 68.1095 16.4052 68.3043 16.2689C68.5169 16.1326 68.7383 16.0645 68.9686 16.0645C69.2697 16.0645 69.5443 16.1715 69.7923 16.3857C70.058 16.5999 70.1908 16.8823 70.1908 17.2327C70.1908 17.4275 70.1554 17.6124 70.0845 17.7877L65.9396 28.3023C65.8156 28.5944 65.6562 28.7988 65.4614 28.9156C65.2842 29.0519 65.0982 29.1201 64.9034 29.1201C64.5846 29.1201 64.2923 28.9935 64.0266 28.7404C63.7786 28.5067 63.6546 28.2244 63.6546 27.8934C63.6546 27.7181 63.69 27.5624 63.7609 27.4261L65.1957 24.6222C64.8945 24.5248 64.6554 24.2814 64.4783 23.892L61.901 17.7585C61.8479 17.5832 61.8213 17.408 61.8213 17.2327Z" fill="#390D60"/>
<path d="M52.2445 25.1186C51.8902 25.1186 51.5979 25.0115 51.3677 24.7973C51.1551 24.5637 51.0488 24.2619 51.0488 23.8919V14.3995C51.0488 13.8933 51.1905 13.5136 51.4739 13.2605C51.7574 12.9879 52.0762 12.8516 52.4305 12.8516C52.6784 12.8516 52.9176 12.9197 53.1478 13.056C53.3781 13.1728 53.573 13.3676 53.7324 13.6402L57.5584 19.9781C57.6293 20.1144 57.7356 20.1826 57.8773 20.1826C58.0544 20.1826 58.143 20.0658 58.143 19.8321L57.957 14.0783C57.9393 13.6888 58.0456 13.387 58.2758 13.1728C58.5061 12.9587 58.7984 12.8516 59.1526 12.8516C59.5069 12.8516 59.7903 12.9587 60.0029 13.1728C60.2332 13.387 60.3483 13.6888 60.3483 14.0783V23.5414C60.3483 24.0282 60.2066 24.4079 59.9232 24.6805C59.6398 24.9531 59.3209 25.0894 58.9667 25.0894C58.7364 25.0894 58.5061 25.0213 58.2758 24.885C58.0456 24.7681 57.8507 24.5734 57.6913 24.3008L53.8918 17.7584C53.821 17.6221 53.7147 17.5539 53.573 17.5539C53.3781 17.5539 53.2807 17.6805 53.2807 17.9336L53.4401 23.8919C53.4578 24.2619 53.3516 24.5637 53.1213 24.7973C52.891 25.0115 52.5987 25.1186 52.2445 25.1186Z" fill="#390D60"/>
<path d="M22.5827 34.8553C22.3297 34.8581 22.0441 34.8264 21.726 34.7604C21.4079 34.6944 21.0871 34.524 20.7636 34.2495L2.28917 20.8933C1.19398 20.1404 0.628391 19.0689 0.592399 17.6786C0.560006 16.4274 1.07071 15.3788 2.12451 14.5328L19.992 0.77794C20.612 0.284409 21.2067 0.0345208 21.776 0.0282748C22.5351 0.0199467 23.1442 0.326162 23.6032 0.94692C24.1254 1.56698 24.3965 2.25934 24.4163 3.02398C24.4414 3.99716 24.051 4.80107 23.2448 5.43571L7.97474 16.8675C7.60239 17.1498 7.41981 17.4299 7.42701 17.7079C7.43241 17.9165 7.62939 18.1924 8.01793 18.5358L23.8711 29.6262C24.6446 30.174 25.0439 30.9345 25.0691 31.9077C25.0871 32.6028 24.8511 33.2659 24.3613 33.8971C23.9347 34.5276 23.3418 34.847 22.5827 34.8553Z" fill="#390D60"/>
<path d="M42.0643 30.3549C41.8777 30.9688 41.5441 31.2784 41.0633 31.2837C40.6584 31.2881 40.3505 31.1246 40.1394 30.7932C39.9284 30.4617 39.8677 30.073 39.9574 29.627L45.9354 8.28438C46.1235 7.72606 46.4579 7.44425 46.9386 7.43898C47.3435 7.43453 47.6641 7.59789 47.9005 7.92905C48.1368 8.26021 48.1971 8.63503 48.0814 9.05349L42.0643 30.3549Z" fill="#390D60"/>
<path d="M27.6352 24.9644C27.281 24.9683 26.9737 24.8326 26.7135 24.5574C26.4526 24.2543 26.3171 23.9081 26.307 23.5188C26.2933 22.9905 26.473 22.5992 26.8461 22.3448L32.9628 18.1057C33.0366 18.0214 33.0717 17.9098 33.0681 17.7707C33.0645 17.6317 33.0237 17.5209 32.9456 17.4383L26.6131 13.3359C26.201 13.0623 25.9882 12.6613 25.9745 12.133C25.9637 11.716 26.0809 11.3531 26.326 11.0445C26.5711 10.7358 26.8708 10.5796 27.225 10.5757C27.554 10.5721 27.8482 10.694 28.1077 10.9415L35.5332 16.2C36.0754 16.6113 36.354 17.1089 36.3691 17.6928C36.3849 18.3045 36.1325 18.8218 35.612 19.2447L28.5006 24.6629C28.2526 24.8603 27.9642 24.9608 27.6352 24.9644Z" fill="#390D60"/>
</svg>
